P2
128 64
255
0 0 0 0 0 0 0 0 0 0 0 0 0 0 1 1 1 1 1 1 1 1 1 2 2 2 2 2 2 2 3 3 3 3 3 4 4 4 4 5 5 5 6 6 6 7 7 7 8 8 9 9 10 11 11 12 13 13 14 15 14 14 13 13 13 12 12 12 12 11 11 11 11 11 10 10 10 10 10 10 9 9 9 9 9 9 9 9 9 8 8 8 7 6 5 5 5 4 4 3 3 3 3 2 2 2 2 2 2 1 1 1 1 1 1 1 0 0 0 0 0 0 0 0 0 0 0 0
0 0 0 0 0 0 0 0 0 0 0 0 0 0 1 1 1 1 1 1 1 1 1 2 2 2 2 2 2 2 3 3 3 3 3 4 4 4 4 5 5 5 6 6 6 7 7 7 8 8 9 10 10 11 11 12 13 14 14 15 15 15 14 14 13 13 13 12 12 12 12 11 11 11 11 11 10 10 10 10 10 10 10 9 9 9 9 9 9 9 8 7 7 6 5 5 5 4 4 3 3 3 3 2 2 2 2 2 2 1 1 1 1 1 1 1 0 0 0 0 0 0 0 0 0 0 0 0
0 0 0 0 0 0 0 0 0 0 0 0 0 0 1 1 1 1 1 1 1 1 1 2 2 2 2 2 2 2 3 3 3 3 3 4 4 4 4 5 5 5 6 6 6 7 7 8 8 9 9 10 10 11 12 12 13 14 15 16 16 16 15 15 14 14 13 13 13 12 12 12 12 11 11 11 11 11 10 10 10 10 10 10 10 9 9 9 9 9 8 7 7 6 5 5 4 4 4 3 3 3 3 2 2 2 2 2 2 1 1 1 1 1 1 1 0 0 0 0 0 0 0 0 0 0 0 0
0 0 0 0 0 0 0 0 0 0 0 0 0 0 1 1 1 1 1 1 1 1 1 2 2 2 2 2 2 2 3 3 3 3 3 4 4 4 4 5 5 5 6 6 6 7 7 8 8 9 9 10 10 11 12 12 13 14 15 16 17 17 16 16 15 14 14 14 13 13 13 12 12 12 12 11 11 11 11 11 11 10 10 10 10 10 10 10 9 9 8 7 6 6 5 5 4 4 4 3 3 3 3 2 2 2 2 2 2 1 1 1 1 1 1 1 0 0 0 0 0 0 0 0 0 0 0 0
0 0 0 0 0 0 0 0 0 0 0 0 0 0 1 1 1 1 1 1 1 1 1 2 2 2 2 2 2 2 3 3 3 3 3 4 4 4 4 5 5 5 6 6 6 7 7 8 8 9 9 10 11 11 12 13 13 14 15 16 17 18 17 17 16 15 15 14 14 14 13 13 13 12 12 12 12 11 11 11 11 11 11 10 10 10 10 10 10 9 8 7 6 6 5 5 4 4 4 3 3 3 3 2 2 2 2 2 2 1 1 1 1 1 1 1 0 0 0 0 0 0 0 0 0 0 0 0
0 0 0 0 0 0 0 0 0 0 0 0 0 0 1 1 1 1 1 1 1 1 1 2 2 2 2 2 2 2 3 3 3 3 3 4 4 4 4 5 5 5 6 6 6 7 7 8 8 9 9 10 11 11 12 13 14 15 15 16 17 19 19 18 17 16 16 15 15 14 14 14 13 13 13 12 12 12 12 12 11 11 11 11 11 10 10 10 10 9 8 7 6 6 5 5 4 4 4 3 3 3 3 2 2 2 2 2 1 1 1 1 1 1 1 1 0 0 0 0 0 0 0 0 0 0 0 0
0 0 0 0 0 0 0 0 0 0 0 0 0 0 1 1 1 1 1 1 1 1 1 2 2 2 2 2 2 2 3 3 3 3 3 4 4 4 5 5 5 5 6 6 7 7 7 8 8 9 10 10 11 11 12 13 14 15 16 17 18 19 20 19 18 17 17 16 15 15 15 14 14 14 13 13 13 12 12 12 12 12 11 11 11 11 11 11 10 8 8 7 6 6 5 5 4 4 4 3 3 3 3 2 2 2 2 2 1 1 1 1 1 1 1 1 0 0 0 0 0 0 0 0 0 0 0 0
0 0 0 0 0 0 0 0 0 0 0 0 0 0 1 1 1 1 1 1 1 1 1 2 2 2 2 2 2 3 3 3 3 3 4 4 4 4 5 5 5 5 6 6 7 7 7 8 8 9 10 10 11 12 12 13 14 15 16 17 18 19 21 21 20 19 18 17 16 16 15 15 14 14 14 13 13 13 13 12 12 12 12 12 11 11 11 11 9 8 7 7 6 6 5 5 4 4 4 3 3 3 3 2 2 2 2 2 1 1 1 1 1 1 1 1 0 0 0 0 0 0 0 0 0 0 0 0
0 0 0 0 0 0 0 0 0 0 0 0 0 0 1 1 1 1 1 1 1 1 1 2 2 2 2 2 2 3 3 3 3 3 4 4 4 4 5 5 5 6 6 6 7 7 8 8 9 9 10 10 11 12 13 13 14 15 16 17 19 20 21 22 21 20 19 18 17 17 16 16 15 15 14 14 14 13 13 13 13 12 12 12 12 12 11 11 9 8 7 7 6 5 5 5 4 4 4 3 3 3 3 2 2 2 2 2 1 1 1 1 1 1 1 1 0 0 0 0 0 0 0 0 0 0 0 0
0 0 0 0 0 0 0 0 0 0 0 0 0 0 1 1 1 1 1 1 1 1 1 2 2 2 2 2 2 3 3 3 3 3 4 4 4 4 5 5 5 6 6 6 7 7 8 8 9 9 10 11 11 12 13 14 15 16 17 18 19 20 22 23 24 22 20 19 18 18 17 16 16 15 15 15 14 14 14 13 13 13 13 12 12 12 12 10 9 8 7 7 6 5 5 5 4 4 4 3 3 3 3 2 2 2 2 2 1 1 1 1 1 1 1 1 0 0 0 0 0 0 0 0 0 0 0 0
0 0 0 0 0 0 0 0 0 0 0 0 0 0 1 1 1 1 1 1 1 1 1 2 2 2 2 2 2 3 3 3 3 3 4 4 4 4 5 5 5 6 6 6 7 7 8 8 9 9 10 11 11 12 13 14 15 16 17 18 20 21 22 24 25 24 22 21 19 19 18 17 17 16 16 15 15 15 14 14 14 13 13 13 13 12 12 10 9 8 7 6 6 5 5 5 4 4 4 3 3 3 3 2 2 2 2 2 1 1 1 1 1 1 1 1 0 0 0 0 0 0 0 0 0 0 0 0
0 0 0 0 0 0 0 0 0 0 0 0 0 0 1 1 1 1 1 1 1 1 1 2 2 2 2 2 2 3 3 3 3 3 4 4 4 4 5 5 5 6 6 6 7 7 8 8 9 9 10 11 12 12 13 14 15 16 18 19 20 21 23 24 26 27 24 22 21 20 19 18 18 17 16 16 16 15 15 14 14 14 14 13 13 13 11 10 9 8 7 6 6 5 5 4 4 4 4 3 3 3 3 2 2 2 2 2 1 1 1 1 1 1 1 1 0 0 0 0 0 0 0 0 0 0 0 0
0 0 0 0 0 0 0 0 0 0 0 0 0 0 1 1 1 1 1 1 1 1 1 2 2 2 2 2 2 3 3 3 3 3 4 4 4 4 5 5 5 6 6 6 7 7 8 8 9 10 10 11 12 13 14 15 16 17 18 19 21 22 24 25 27 28 26 24 22 21 20 19 18 18 17 17 16 16 15 15 15 14 14 14 14 13 11 9 8 8 7 6 6 5 5 4 4 4 3 3 3 3 3 2 2 2 2 2 1 1 1 1 1 1 1 1 0 0 0 0 0 0 0 0 0 0 0 0
0 0 0 0 0 0 0 0 0 0 0 0 0 0 1 1 1 1 1 1 1 1 1 2 2 2 2 2 2 3 3 3 3 3 4 4 4 4 5 5 5 6 6 7 7 7 8 9 9 10 10 11 12 13 14 15 16 17 18 20 21 23 24 26 28 29 30 26 24 22 21 20 19 19 18 17 17 16 16 16 15 15 15 14 14 12 11 9 8 7 7 6 6 5 5 4 4 4 3 3 3 3 2 2 2 2 2 2 1 1 1 1 1 1 1 1 0 0 0 0 0 0 0 0 0 0 0 0
0 0 0 0 0 0 0 0 0 0 0 0 0 0 1 1 1 1 1 1 1 1 1 2 2 2 2 2 2 3 3 3 3 3 4 4 4 4 5 5 5 6 6 7 7 8 8 9 9 10 11 11 12 13 14 15 16 18 19 20 22 24 25 27 29 30 32 29 26 24 23 21 20 20 19 18 18 17 17 16 16 16 15 15 14 12 10 9 8 7 7 6 6 5 5 4 4 4 3 3 3 3 2 2 2 2 2 2 1 1 1 1 1 1 1 1 0 0 0 0 0 0 0 0 0 0 0 0
0 0 0 0 0 0 0 0 0 0 0 0 0 0 1 1 1 1 1 1 1 1 1 2 2 2 2 2 2 3 3 3 3 3 4 4 4 4 5 5 5 6 6 7 7 8 8 9 9 10 11 12 12 13 14 16 17 18 19 21 23 24 26 28 30 32 34 35 29 26 24 23 22 21 20 19 19 18 17 17 17 16 16 15 13 11 10 9 8 7 7 6 6 5 5 4 4 4 3 3 3 3 2 2 2 2 2 2 1 1 1 1 1 1 1 1 0 0 0 0 0 0 0 0 0 0 0 0
0 0 0 0 0 0 0 0 0 0 0 0 0 0 1 1 1 1 1 1 1 1 1 2 2 2 2 2 2 3 3 3 3 3 4 4 4 5 5 5 6 6 6 7 7 8 8 9 9 10 11 12 13 14 15 16 17 19 20 22 23 25 27 29 31 33 35 37 32 28 26 24 23 22 21 20 19 19 18 18 17 17 16 16 13 11 10 9 8 7 7 6 5 5 5 4 4 4 3 3 3 3 2 2 2 2 2 2 1 1 1 1 1 1 1 1 0 0 0 0 0 0 0 0 0 0 0 0
0 0 0 0 0 0 0 0 0 0 0 0 0 0 1 1 1 1 1 1 1 1 2 2 2 2 2 2 2 3 3 3 3 3 4 4 4 5 5 5 6 6 6 7 7 8 8 9 10 10 11 12 13 14 15 16 18 19 21 22 24 26 28 30 33 35 37 39 41 31 28 26 24 23 22 21 20 20 19 18 18 17 17 15 12 11 10 9 8 7 6 6 5 5 5 4 4 4 3 3 3 3 2 2 2 2 2 2 1 1 1 1 1 1 1 1 0 0 0 0 0 0 0 0 0 0 0 0
0 0 0 0 0 0 0 0 0 0 0 0 0 0 1 1 1 1 1 1 1 1 2 2 2 2 2 2 2 3 3 3 3 4 4 4 4 5 5 5 6 6 6 7 7 8 8 9 10 10 11 12 13 14 15 17 18 20 21 23 25 27 30 32 34 36 39 41 43 34 30 27 26 24 23 22 21 20 20 19 19 18 18 14 12 10 9 8 8 7 6 6 5 5 5 4 4 4 3 3 3 3 2 2 2 2 2 2 1 1 1 1 1 1 1 1 0 0 0 0 0 0 0 0 0 0 0 0
0 0 0 0 0 0 0 0 0 0 0 0 0 0 1 1 1 1 1 1 1 1 2 2 2 2 2 2 2 3 3 3 3 4 4 4 4 5 5 5 6 6 6 7 7 8 9 9 10 11 11 12 13 15 16 17 19 20 22 24 26 29 31 34 36 39 41 43 45 40 32 29 27 26 24 23 22 21 21 20 19 19 16 13 11 10 9 8 7 7 6 6 5 5 5 4 4 4 3 3 3 3 2 2 2 2 2 2 1 1 1 1 1 1 1 1 0 0 0 0 0 0 0 0 0 0 0 0
0 0 0 0 0 0 0 0 0 0 0 0 0 0 1 1 1 1 1 1 1 1 2 2 2 2 2 2 2 3 3 3 3 4 4 4 4 5 5 5 6 6 7 7 8 8 9 9 10 11 12 13 14 15 16 18 19 21 23 25 28 30 33 36 38 41 43 46 48 49 36 31 29 27 25 24 23 22 21 21 20 19 15 13 11 10 9 8 7 7 6 6 5 5 5 4 4 4 3 3 3 3 2 2 2 2 2 2 1 1 1 1 1 1 1 1 0 0 0 0 0 0 0 0 0 0 0 0
0 0 0 0 0 0 0 0 0 0 0 0 0 0 1 1 1 1 1 1 1 1 2 2 2 2 2 2 2 3 3 3 3 4 4 4 4 5 5 5 6 6 7 7 8 8 9 9 10 11 12 13 14 15 17 18 20 22 24 27 29 32 35 38 41 44 46 49 51 52 40 34 31 29 27 25 24 23 22 22 21 18 14 12 11 10 9 8 7 7 6 6 5 5 4 4 4 4 3 3 3 3 2 2 2 2 2 2 1 1 1 1 1 1 1 1 0 0 0 0 0 0 0 0 0 0 0 0
0 0 0 0 0 0 0 0 0 0 0 0 0 0 1 1 1 1 1 1 1 1 2 2 2 2 2 2 3 3 3 3 3 4 4 4 4 5 5 5 6 6 7 7 8 8 9 10 10 11 12 13 14 16 17 19 21 23 25 28 31 35 38 41 45 48 50 52 54 56 57 37 33 30 28 27 25 24 23 22 22 16 14 12 11 10 9 8 7 7 6 6 5 5 4 4 4 4 3 3 3 3 2 2 2 2 2 2 1 1 1 1 1 1 1 1 0 0 0 0 0 0 0 0 0 0 0 0
0 0 0 0 0 0 0 0 0 0 0 0 0 0 1 1 1 1 1 1 1 1 2 2 2 2 2 2 3 3 3 3 3 4 4 4 4 5 5 5 6 6 7 7 8 8 9 10 11 11 12 14 15 16 18 20 22 24 27 30 34 38 42 46 50 53 55 57 59 60 61 40 35 32 30 28 27 25 24 23 20 15 13 12 10 9 8 8 7 7 6 6 5 5 4 4 4 3 3 3 3 3 2 2 2 2 2 2 1 1 1 1 1 1 1 1 0 0 0 0 0 0 0 0 0 0 0 0
0 0 0 0 0 0 0 0 0 0 0 0 0 0 1 1 1 1 1 1 1 1 2 2 2 2 2 2 3 3 3 3 3 4 4 4 4 5 5 6 6 6 7 7 8 8 9 10 11 12 13 14 15 17 18 20 23 26 29 33 37 42 48 54 58 61 63 64 64 65 65 44 37 34 31 29 28 26 25 24 18 15 13 11 10 9 8 8 7 6 6 5 5 5 4 4 4 3 3 3 3 3 2 2 2 2 2 2 1 1 1 1 1 1 1 1 0 0 0 0 0 0 0 0 0 0 0 0
0 0 0 0 0 0 0 0 0 0 0 0 0 1 1 1 1 1 1 1 1 1 2 2 2 2 2 2 3 3 3 3 3 4 4 4 5 5 5 6 6 6 7 7 8 9 9 10 11 12 13 14 16 17 19 21 24 27 31 37 44 187 195 255 255 255 211 210 73 71 70 49 40 36 33 31 29 28 26 21 16 14 12 11 10 9 8 8 7 6 6 5 5 5 4 4 4 3 3 3 3 3 2 2 2 2 2 2 1 1 1 1 1 1 1 1 0 0 0 0 0 0 0 0 0 0 0 0
0 0 0 0 0 0 0 0 0 0 0 0 0 1 1 1 1 1 1 1 1 1 2 2 2 2 2 2 3 3 3 3 3 4 4 4 5 5 5 6 6 6 7 7 8 9 9 10 11 12 13 15 16 18 20 23 26 30 36 179 189 255 255 255 255 255 255 255 220 82 77 75 42 38 35 32 30 29 27 19 16 14 12 11 10 9 8 7 7 6 6 5 5 5 4 4 4 3 3 3 3 3 2 2 2 2 2 2 1 1 1 1 1 1 1 1 0 0 0 0 0 0 0 0 0 0 0 0
0 0 0 0 0 0 0 0 0 0 0 0 0 1 1 1 1 1 1 1 1 1 2 2 2 2 2 2 3 3 3 3 3 4 4 4 5 5 5 6 6 7 7 8 8 9 10 10 11 12 14 15 17 19 21 24 28 34 177 255 255 255 255 255 255 255 255 255 255 230 222 82 45 40 36 34 32 30 22 17 15 13 12 11 10 9 8 7 7 6 6 5 5 5 4 4 4 3 3 3 3 3 2 2 2 2 2 1 1 1 1 1 1 1 1 1 0 0 0 0 0 0 0 0 0 0 0 0
0 0 0 0 0 0 0 0 0 0 0 0 0 1 1 1 1 1 1 1 1 1 2 2 2 2 2 2 3 3 3 3 3 4 4 4 5 5 5 6 6 7 7 8 8 9 10 11 12 13 14 15 17 19 22 26 32 174 255 255 255 255 255 255 255 255 255 255 255 255 255 195 48 42 38 35 33 31 20 17 14 13 11 10 9 9 8 7 7 6 6 5 5 5 4 4 4 3 3 3 3 2 2 2 2 2 2 1 1 1 1 1 1 1 1 1 0 0 0 0 0 0 0 0 0 0 0 0
0 0 0 0 0 0 0 0 0 0 0 0 0 1 1 1 1 1 1 1 1 1 2 2 2 2 2 2 3 3 3 3 3 4 4 4 5 5 5 6 6 7 7 8 8 9 10 11 12 13 14 16 18 21 24 29 62 212 255 255 255 255 255 255 255 255 255 255 255 255 255 200 51 44 40 37 34 23 18 16 14 12 11 10 9 8 8 7 7 6 6 5 5 5 4 4 4 3 3 3 3 2 2 2 2 2 2 1 1 1 1 1 1 1 1 1 0 0 0 0 0 0 0 0 0 0 0 0
0 0 0 0 0 0 0 0 0 0 0 0 0 1 1 1 1 1 1 1 1 1 2 2 2 2 2 2 3 3 3 3 4 4 4 4 5 5 5 6 6 7 7 8 9 9 10 11 12 13 15 17 19 22 26 53 61 255 255 255 255 255 255 255 255 255 255 255 255 255 255 255 54 46 41 38 36 21 17 15 13 12 11 10 9 8 8 7 7 6 6 5 5 4 4 4 4 3 3 3 3 2 2 2 2 2 2 1 1 1 1 1 1 1 1 1 0 0 0 0 0 0 0 0 0 0 0 0
0 0 0 0 0 0 0 0 0 0 0 0 0 1 1 1 1 1 1 1 1 1 2 2 2 2 2 2 3 3 3 3 4 4 4 4 5 5 5 6 6 7 7 8 9 9 10 11 12 14 15 17 20 24 46 51 60 255 255 255 255 255 255 255 255 255 255 255 255 255 255 255 56 48 43 40 24 19 17 15 13 12 11 10 9 8 8 7 6 6 6 5 5 4 4 4 4 3 3 3 3 2 2 2 2 2 2 1 1 1 1 1 1 1 1 1 0 0 0 0 0 0 0 0 0 0 0 0
0 0 0 0 0 0 0 0 0 0 0 0 0 1 1 1 1 1 1 1 1 1 2 2 2 2 2 2 3 3 3 3 4 4 4 4 5 5 6 6 6 7 7 8 9 10 10 11 13 14 16 18 21 27 45 50 58 255 255 255 255 255 255 255 255 255 255 255 255 255 255 255 58 50 45 27 21 18 16 14 13 11 10 10 9 8 7 7 6 6 6 5 5 4 4 4 4 3 3 3 3 2 2 2 2 2 2 1 1 1 1 1 1 1 1 1 0 0 0 0 0 0 0 0 0 0 0 0
0 0 0 0 0 0 0 0 0 0 0 0 0 1 1 1 1 1 1 1 1 1 2 2 2 2 2 2 3 3 3 3 4 4 4 4 5 5 6 6 6 7 8 8 9 10 11 12 13 15 17 19 24 40 43 48 56 255 255 255 255 255 255 255 255 255 255 255 255 255 255 255 60 51 46 24 20 17 15 14 12 11 10 9 9 8 7 7 6 6 5 5 5 4 4 4 4 3 3 3 3 2 2 2 2 2 2 1 1 1 1 1 1 1 1 1 0 0 0 0 0 0 0 0 0 0 0 0
0 0 0 0 0 0 0 0 0 0 0 0 0 1 1 1 1 1 1 1 1 1 2 2 2 2 2 2 3 3 3 3 4 4 4 4 5 5 6 6 7 7 8 8 9 10 11 12 13 15 17 21 36 38 41 46 54 255 255 255 255 255 255 255 255 255 255 255 255 255 255 255 61 53 26 22 19 17 15 13 12 11 10 9 9 8 7 7 6 6 5 5 5 4 4 4 4 3 3 3 3 2 2 2 2 2 2 1 1 1 1 1 1 1 1 1 0 0 0 0 0 0 0 0 0 0 0 0
0 0 0 0 0 0 0 0 0 0 0 0 0 1 1 1 1 1 1 1 1 1 2 2 2 2 2 2 3 3 3 3 4 4 4 5 5 5 6 6 7 7 8 8 9 10 11 12 14 16 18 23 34 37 40 44 51 200 255 255 255 255 255 255 255 255 255 255 255 255 255 212 62 29 24 21 18 16 14 13 12 11 10 9 8 8 7 7 6 6 5 5 5 4 4 4 3 3 3 3 3 2 2 2 2 2 2 1 1 1 1 1 1 1 1 1 0 0 0 0 0 0 0 0 0 0 0 0
0 0 0 0 0 0 0 0 0 0 0 0 0 1 1 1 1 1 1 1 1 1 2 2 2 2 2 2 3 3 3 3 4 4 4 5 5 5 6 6 7 7 8 9 9 10 11 13 14 17 20 31 33 35 38 42 48 195 255 255 255 255 255 255 255 255 255 255 255 255 255 174 32 26 22 19 17 15 14 13 12 11 10 9 8 8 7 7 6 6 5 5 5 4 4 4 3 3 3 3 3 2 2 2 2 2 2 1 1 1 1 1 1 1 1 1 0 0 0 0 0 0 0 0 0 0 0 0
0 0 0 0 0 0 0 0 0 0 0 0 0 1 1 1 1 1 1 1 1 1 2 2 2 2 2 3 3 3 3 3 4 4 4 5 5 5 6 6 7 7 8 9 10 11 12 13 15 17 22 30 32 34 36 40 45 82 222 230 255 255 255 255 255 255 255 255 255 255 177 34 28 24 21 19 17 15 14 12 11 10 10 9 8 8 7 7 6 6 5 5 5 4 4 4 3 3 3 3 3 2 2 2 2 2 2 1 1 1 1 1 1 1 1 1 0 0 0 0 0 0 0 0 0 0 0 0
0 0 0 0 0 0 0 0 0 0 0 0 0 1 1 1 1 1 1 1 1 2 2 2 2 2 2 3 3 3 3 3 4 4 4 5 5 5 6 6 7 7 8 9 10 11 12 14 16 19 27 29 30 32 35 38 42 75 77 82 220 255 255 255 255 255 255 255 189 179 36 30 26 23 20 18 16 15 13 12 11 10 9 9 8 7 7 6 6 6 5 5 5 4 4 4 3 3 3 3 3 2 2 2 2 2 2 1 1 1 1 1 1 1 1 1 0 0 0 0 0 0 0 0 0 0 0 0
0 0 0 0 0 0 0 0 0 0 0 0 0 1 1 1 1 1 1 1 1 2 2 2 2 2 2 3 3 3 3 3 4 4 4 5 5 5 6 6 7 8 8 9 10 11 12 14 16 21 26 28 29 31 33 36 40 49 70 71 73 210 211 255 255 255 195 186 44 37 31 27 24 21 19 17 16 14 13 12 11 10 9 9 8 7 7 6 6 6 5 5 5 4 4 4 3 3 3 3 3 2 2 2 2 2 2 1 1 1 1 1 1 1 1 1 0 0 0 0 0 0 0 0 0 0 0 0
0 0 0 0 0 0 0 0 0 0 0 0 0 1 1 1 1 1 1 1 1 2 2 2 2 2 2 3 3 3 3 3 4 4 4 5 5 5 6 6 7 8 8 9 10 11 13 15 18 24 25 26 28 29 31 34 37 44 65 65 64 64 63 61 58 54 48 42 37 33 29 26 23 20 18 17 15 14 13 12 11 10 9 8 8 7 7 6 6 6 5 5 4 4 4 4 3 3 3 3 3 2 2 2 2 2 2 1 1 1 1 1 1 1 1 0 0 0 0 0 0 0 0 0 0 0 0 0
0 0 0 0 0 0 0 0 0 0 0 0 0 1 1 1 1 1 1 1 1 2 2 2 2 2 2 3 3 3 3 3 4 4 4 5 5 6 6 7 7 8 8 9 10 12 13 15 20 23 24 25 27 28 30 32 35 40 61 60 59 57 55 53 50 46 42 38 34 30 27 24 22 20 18 16 15 14 12 11 11 10 9 8 8 7 7 6 6 5 5 5 4 4 4 4 3 3 3 3 3 2 2 2 2 2 2 1 1 1 1 1 1 1 1 0 0 0 0 0 0 0 0 0 0 0 0 0
0 0 0 0 0 0 0 0 0 0 0 0 0 1 1 1 1 1 1 1 1 2 2 2 2 2 2 3 3 3 3 4 4 4 4 5 5 6 6 7 7 8 9 10 11 12 14 16 22 22 23 24 25 27 28 30 33 37 57 56 54 52 50 48 45 41 38 35 31 28 25 23 21 19 17 16 14 13 12 11 10 10 9 8 8 7 7 6 6 5 5 5 4 4 4 4 3 3 3 3 3 2 2 2 2 2 2 1 1 1 1 1 1 1 1 0 0 0 0 0 0 0 0 0 0 0 0 0
0 0 0 0 0 0 0 0 0 0 0 0 0 1 1 1 1 1 1 1 1 2 2 2 2 2 2 3 3 3 3 4 4 4 4 5 5 6 6 7 7 8 9 10 11 12 14 18 21 22 22 23 24 25 27 29 31 34 40 52 51 49 46 44 41 38 35 32 29 27 24 22 20 18 17 15 14 13 12 11 10 9 9 8 8 7 7 6 6 5 5 5 4 4 4 4 3 3 3 3 2 2 2 2 2 2 2 1 1 1 1 1 1 1 1 0 0 0 0 0 0 0 0 0 0 0 0 0
0 0 0 0 0 0 0 0 0 0 0 0 0 1 1 1 1 1 1 1 1 2 2 2 2 2 2 3 3 3 3 4 4 4 5 5 5 6 6 7 7 8 9 10 11 13 15 19 20 21 21 22 23 24 25 27 29 31 36 49 48 46 43 41 38 36 33 30 28 25 23 21 19 18 16 15 14 13 12 11 10 9 9 8 8 7 7 6 6 5 5 5 4 4 4 4 3 3 3 3 2 2 2 2 2 2 2 1 1 1 1 1 1 1 1 0 0 0 0 0 0 0 0 0 0 0 0 0
0 0 0 0 0 0 0 0 0 0 0 0 0 1 1 1 1 1 1 1 1 2 2 2 2 2 2 3 3 3 3 4 4 4 5 5 5 6 6 7 7 8 9 10 11 13 16 19 19 20 21 21 22 23 24 26 27 29 32 40 45 43 41 39 36 34 31 29 26 24 22 20 19 17 16 15 13 12 11 11 10 9 9 8 7 7 6 6 6 5 5 5 4 4 4 4 3 3 3 3 2 2 2 2 2 2 2 1 1 1 1 1 1 1 1 0 0 0 0 0 0 0 0 0 0 0 0 0
0 0 0 0 0 0 0 0 0 0 0 0 0 1 1 1 1 1 1 1 1 2 2 2 2 2 2 3 3 3 3 4 4 4 5 5 5 6 6 7 8 8 9 10 12 14 18 18 19 19 20 20 21 22 23 24 26 27 30 34 43 41 39 36 34 32 30 27 25 23 21 20 18 17 15 14 13 12 11 10 10 9 8 8 7 7 6 6 6 5 5 5 4 4 4 4 3 3 3 3 2 2 2 2 2 2 2 1 1 1 1 1 1 1 1 0 0 0 0 0 0 0 0 0 0 0 0 0
0 0 0 0 0 0 0 0 0 0 0 0 0 1 1 1 1 1 1 1 1 2 2 2 2 2 2 3 3 3 3 4 4 4 5 5 5 6 6 7 8 9 10 11 12 15 17 17 18 18 19 20 20 21 22 23 24 26 28 31 41 39 37 35 33 30 28 26 24 22 21 19 18 16 15 14 13 12 11 10 10 9 8 8 7 7 6 6 6 5 5 5 4 4 4 3 3 3 3 3 2 2 2 2 2 2 2 1 1 1 1 1 1 1 1 0 0 0 0 0 0 0 0 0 0 0 0 0
0 0 0 0 0 0 0 0 0 0 0 0 0 1 1 1 1 1 1 1 1 2 2 2 2 2 2 3 3 3 3 4 4 4 5 5 5 6 7 7 8 9 10 11 13 16 16 17 17 18 18 19 19 20 21 22 23 24 26 28 32 37 35 33 31 29 27 25 23 22 20 19 17 16 15 14 13 12 11 10 9 9 8 8 7 7 6 6 6 5 5 5 4 4 4 3 3 3 3 3 2 2 2 2 2 2 1 1 1 1 1 1 1 1 1 0 0 0 0 0 0 0 0 0 0 0 0 0
0 0 0 0 0 0 0 0 0 0 0 0 0 1 1 1 1 1 1 1 1 2 2 2 2 2 2 3 3 3 3 4 4 4 5 5 6 6 7 7 8 9 10 11 13 15 16 16 17 17 17 18 19 19 20 21 22 23 24 26 29 35 34 32 30 28 26 24 23 21 19 18 17 16 14 13 12 12 11 10 9 9 8 8 7 7 6 6 5 5 5 4 4 4 4 3 3 3 3 3 2 2 2 2 2 2 1 1 1 1 1 1 1 1 1 0 0 0 0 0 0 0 0 0 0 0 0 0
0 0 0 0 0 0 0 0 0 0 0 0 0 1 1 1 1 1 1 1 1 2 2 2 2 2 2 3 3 3 3 4 4 4 5 5 6 6 7 7 8 9 10 12 14 15 15 16 16 16 17 17 18 18 19 20 20 21 23 24 26 29 32 30 29 27 25 24 22 20 19 18 16 15 14 13 12 11 11 10 9 9 8 8 7 7 6 6 5 5 5 4 4 4 4 3 3 3 3 3 2 2 2 2 2 2 1 1 1 1 1 1 1 1 1 0 0 0 0 0 0 0 0 0 0 0 0 0
0 0 0 0 0 0 0 0 0 0 0 0 0 1 1 1 1 1 1 1 1 2 2 2 2 2 2 3 3 3 3 4 4 4 5 5 6 6 7 7 8 9 11 12 14 14 15 15 15 16 16 16 17 17 18 19 19 20 21 22 24 26 30 29 28 26 24 23 21 20 18 17 16 15 14 13 12 11 10 10 9 9 8 7 7 7 6 6 5 5 5 4 4 4 4 3 3 3 3 3 2 2 2 2 2 2 1 1 1 1 1 1 1 1 1 0 0 0 0 0 0 0 0 0 0 0 0 0
0 0 0 0 0 0 0 0 0 0 0 0 0 1 1 1 1 1 1 1 1 2 2 2 2 2 3 3 3 3 3 4 4 4 5 5 6 6 7 8 8 9 11 13 14 14 14 14 15 15 15 16 16 17 17 18 18 19 20 21 22 24 26 28 27 25 24 22 21 19 18 17 16 15 14 13 12 11 10 10 9 8 8 7 7 6 6 6 5 5 5 4 4 4 4 3 3 3 3 3 2 2 2 2 2 2 1 1 1 1 1 1 1 1 1 0 0 0 0 0 0 0 0 0 0 0 0 0
0 0 0 0 0 0 0 0 0 0 0 0 0 1 1 1 1 1 1 1 1 2 2 2 2 2 3 3 3 3 4 4 4 4 5 5 6 6 7 8 9 10 11 13 13 13 14 14 14 14 15 15 16 16 16 17 18 18 19 20 21 22 24 27 26 24 23 21 20 19 18 16 15 14 13 12 12 11 10 9 9 8 8 7 7 6 6 6 5 5 5 4 4 4 4 3 3 3 3 3 2 2 2 2 2 2 1 1 1 1 1 1 1 1 1 0 0 0 0 0 0 0 0 0 0 0 0 0
0 0 0 0 0 0 0 0 0 0 0 0 0 1 1 1 1 1 1 1 1 2 2 2 2 2 3 3 3 3 4 4 4 5 5 5 6 6 7 8 9 10 12 12 13 13 13 13 14 14 14 15 15 15 16 16 17 17 18 19 19 21 22 24 25 24 22 21 20 18 17 16 15 14 13 12 11 11 10 9 9 8 8 7 7 6 6 6 5 5 5 4 4 4 4 3 3 3 3 3 2 2 2 2 2 2 1 1 1 1 1 1 1 1 1 0 0 0 0 0 0 0 0 0 0 0 0 0
0 0 0 0 0 0 0 0 0 0 0 0 0 1 1 1 1 1 1 1 1 2 2 2 2 2 3 3 3 3 4 4 4 5 5 5 6 7 7 8 9 10 12 12 12 12 13 13 13 13 14 14 14 15 15 15 16 16 17 18 18 19 20 22 24 23 22 20 19 18 17 16 15 14 13 12 11 11 10 9 9 8 8 7 7 6 6 6 5 5 5 4 4 4 4 3 3 3 3 3 2 2 2 2 2 2 1 1 1 1 1 1 1 1 1 0 0 0 0 0 0 0 0 0 0 0 0 0
0 0 0 0 0 0 0 0 0 0 0 0 0 1 1 1 1 1 1 1 1 2 2 2 2 2 3 3 3 3 4 4 4 5 5 5 6 7 7 8 9 11 11 12 12 12 12 12 13 13 13 13 14 14 14 15 15 16 16 17 17 18 19 20 21 22 21 20 19 17 16 15 14 13 13 12 11 10 10 9 9 8 8 7 7 6 6 6 5 5 5 4 4 4 4 3 3 3 3 3 2 2 2 2 2 2 1 1 1 1 1 1 1 1 1 0 0 0 0 0 0 0 0 0 0 0 0 0
0 0 0 0 0 0 0 0 0 0 0 0 0 1 1 1 1 1 1 1 1 2 2 2 2 2 3 3 3 3 4 4 4 5 5 6 6 7 7 8 9 11 11 11 11 12 12 12 12 12 13 13 13 13 14 14 14 15 15 16 16 17 18 19 20 21 21 19 18 17 16 15 14 13 12 12 11 10 10 9 8 8 7 7 7 6 6 5 5 5 5 4 4 4 4 3 3 3 3 3 2 2 2 2 2 2 1 1 1 1 1 1 1 1 1 0 0 0 0 0 0 0 0 0 0 0 0 0
0 0 0 0 0 0 0 0 0 0 0 0 0 1 1 1 1 1 1 1 1 2 2 2 2 2 3 3 3 3 4 4 4 5 5 6 6 7 8 8 10 11 11 11 11 11 11 12 12 12 12 12 13 13 13 14 14 14 15 15 15 16 17 17 18 19 20 19 18 17 16 15 14 13 12 11 11 10 10 9 8 8 7 7 7 6 6 5 5 5 5 4 4 4 3 3 3 3 3 2 2 2 2 2 2 2 1 1 1 1 1 1 1 1 1 0 0 0 0 0 0 0 0 0 0 0 0 0
0 0 0 0 0 0 0 0 0 0 0 0 0 1 1 1 1 1 1 1 1 2 2 2 2 2 3 3 3 3 4 4 4 5 5 6 6 7 8 9 10 10 10 10 11 11 11 11 11 12 12 12 12 12 13 13 13 14 14 14 15 15 16 16 17 18 19 19 17 16 15 15 14 13 12 11 11 10 9 9 8 8 7 7 6 6 6 5 5 5 4 4 4 4 3 3 3 3 3 2 2 2 2 2 2 2 1 1 1 1 1 1 1 1 1 0 0 0 0 0 0 0 0 0 0 0 0 0
0 0 0 0 0 0 0 0 0 0 0 0 0 1 1 1 1 1 1 1 2 2 2 2 2 2 3 3 3 3 4 4 4 5 5 6 6 7 8 9 10 10 10 10 10 10 11 11 11 11 11 11 12 12 12 12 13 13 13 14 14 14 15 15 16 17 17 18 17 16 15 14 13 13 12 11 11 10 9 9 8 8 7 7 6 6 6 5 5 5 4 4 4 4 3 3 3 3 3 2 2 2 2 2 2 2 1 1 1 1 1 1 1 1 1 0 0 0 0 0 0 0 0 0 0 0 0 0
0 0 0 0 0 0 0 0 0 0 0 0 0 1 1 1 1 1 1 1 2 2 2 2 2 2 3 3 3 3 4 4 4 5 5 6 6 7 8 9 9 10 10 10 10 10 10 10 11 11 11 11 11 11 12 12 12 12 13 13 13 14 14 14 15 16 16 17 17 16 15 14 13 12 12 11 10 10 9 9 8 8 7 7 6 6 6 5 5 5 4 4 4 4 3 3 3 3 3 2 2 2 2 2 2 2 1 1 1 1 1 1 1 1 1 0 0 0 0 0 0 0 0 0 0 0 0 0
0 0 0 0 0 0 0 0 0 0 0 0 0 1 1 1 1 1 1 1 2 2 2 2 2 2 3 3 3 3 4 4 4 5 5 6 7 7 8 9 9 9 9 9 10 10 10 10 10 10 10 11 11 11 11 11 12 12 12 12 13 13 13 14 14 15 15 16 16 16 15 14 13 12 12 11 10 10 9 9 8 8 7 7 6 6 6 5 5 5 4 4 4 4 3 3 3 3 3 2 2 2 2 2 2 2 1 1 1 1 1 1 1 1 1 0 0 0 0 0 0 0 0 0 0 0 0 0
0 0 0 0 0 0 0 0 0 0 0 0 0 1 1 1 1 1 1 1 2 2 2 2 2 2 3 3 3 3 4 4 5 5 5 6 7 7 8 9 9 9 9 9 9 9 10 10 10 10 10 10 10 11 11 11 11 11 12 12 12 12 13 13 13 14 14 15 15 15 14 14 13 12 11 11 10 10 9 8 8 7 7 7 6 6 6 5 5 5 4 4 4 4 3 3 3 3 3 2 2 2 2 2 2 2 1 1 1 1 1 1 1 1 1 0 0 0 0 0 0 0 0 0 0 0 0 0
